<svg width="14" height="16" viewBox="0 0 14 16" fill="none" xmlns="http://www.w3.org/2000/svg">
<path d="M13.3332 15.3313L11.3083 13.3063C11.6239 12.9119 11.8343 12.3859 11.8343 11.8336C11.8343 10.5187 10.7823 9.4668 9.46742 9.4668C8.15251 9.4668 7.10059 10.5187 7.10059 11.8336C7.10059 13.1485 8.15251 14.2005 9.46742 14.2005C10.0197 14.2005 10.5456 14.0164 10.9401 13.6745L12.9651 15.6995L13.3332 15.3313ZM9.46742 13.6745C8.44179 13.6745 7.62655 12.8593 7.62655 11.8336C7.62655 10.808 8.44179 9.99276 9.46742 9.99276C10.493 9.99276 11.3083 10.808 11.3083 11.8336C11.3083 12.8593 10.493 13.6745 9.46742 13.6745Z" fill="black"/>
<path d="M0.525963 5.91709L3.41876 3.81323V0.525963H9.20436V8.67839H9.73032V0.525963C9.73032 0.236683 9.49364 0 9.20436 0H2.99799L0 5.733V13.938C0 14.2273 0.236683 14.464 0.525963 14.464H7.1005V13.938H0.525963V5.91709ZM1.02563 4.91776L2.8928 1.34121V3.55025L1.02563 4.91776Z" fill="black"/>
</svg>
